<?xml version="1.0" encoding="utf-8"?>
<svg viewBox="128.2895 128.2895 149.1228 176.5351" xmlns="http://www.w3.org/2000/svg">
  <path d="M267.105338,226.336541 L208.993454,184.227173 C206.063545,182.107166 202.099421,182.107166 199.173913,184.227173 L173.273427,202.992315 C171.760613,204.085238 169.913329,204.529649 168.069345,204.237764 C166.224261,203.948074 164.605825,202.958298 163.506696,201.449493 C162.407568,199.942883 161.964176,198.099398 162.257937,196.2614 C162.550598,194.422304 163.540803,192.805963 165.053618,191.710845 L183.417536,178.403736 L183.421937,178.403736 L199.408261,166.819408 C208.339919,160.344167 220.652579,161.147399 228.64024,168.73751 C230.405007,170.418593 233.156679,170.52174 235.130489,169.08865 L267.105338,145.921091 L267.105338,226.336541 Z M266.373685,242.796229 L266.290068,243.352566 C266.094227,244.569486 265.282259,246.325186 264.389973,247.171214 C262.038784,249.407536 258.592868,249.584204 256.086546,247.765957 L227.721549,227.192445 L227.514706,227.045405 C225.795048,225.796663 222.986164,225.812026 221.421639,227.250602 C219.145265,229.345372 219.443427,232.852383 221.815521,234.569677 L222.163193,234.820961 L248.177002,253.671693 C249.623803,254.722918 250.692125,256.276713 250.937476,258.04997 C251.279647,260.496977 250.288341,262.798041 248.345337,264.208088 L247.749013,264.641526 C245.485842,266.279814 242.421705,266.279814 240.157434,264.641526 L207.896526,241.261088 C206.176869,240.017833 203.362484,240.029904 201.801259,241.467383 C199.521585,243.566542 199.823048,247.068066 202.19294,248.78536 L228.554422,267.887376 C230.005623,268.939699 231.069545,270.494591 231.313795,272.266751 C231.661468,274.718147 230.671262,277.013725 228.724957,278.427063 L228.125332,278.859404 C225.863262,280.498789 222.798025,280.498789 220.537055,278.859404 L214.659633,274.59854 L188.273946,255.480064 C186.554289,254.233517 183.743204,254.251074 182.180879,255.688553 C179.899005,257.782226 180.202668,261.287042 182.572561,263.004336 L208.934042,282.108547 C210.383043,283.157577 211.446965,284.713566 211.696717,286.482434 C212.038888,288.934928 211.048682,291.234895 209.101277,292.644941 L208.522557,293.066309 C206.494835,294.533416 203.848785,294.68704 201.684635,293.530472 L138.596417,247.813141 L138.596417,145.921091 L166.011917,165.790129 L174.653114,172.048102 L158.994658,183.397605 C155.257181,186.101383 152.803671,190.101087 152.081921,194.653837 C151.35467,199.203295 152.452698,203.761531 155.171363,207.492393 C157.885628,211.218867 161.892661,213.666971 166.455309,214.392294 C167.3718,214.536042 168.288291,214.608465 169.19818,214.608465 C172.822333,214.608465 176.343065,213.476038 179.332387,211.309943 L201.23134,195.442805 C202.932294,194.209425 205.233973,194.209425 206.932726,195.442805 L264.389973,237.09569 C265.954498,238.543045 266.708155,240.656469 266.373685,242.796229 L266.373685,242.796229 Z M259.720602,138.565805 L233.679287,157.436289 C232.883822,158.012378 231.801197,158.067243 230.976025,157.52956 C220.381922,150.645021 206.596056,150.341066 195.628976,156.996266 C195.295606,157.144403 194.973239,157.321071 194.665175,157.542728 L183.415336,165.696857 L145.980052,138.565805 L259.720602,138.565805 Z M275.900566,129.792792 C274.937866,128.827157 273.625293,128.289474 272.256609,128.289474 L133.441845,128.289474 C130.595553,128.289474 128.289474,130.589441 128.289474,133.424896 L128.289474,250.431329 C128.289474,252.0762 129.080538,253.620119 130.410715,254.587949 L197.185799,302.989306 L197.1891,302.989306 C200.563502,305.436313 205.137153,305.436313 208.512654,302.989306 L275.285538,254.604408 C276.621216,253.633287 277.412281,252.090466 277.412281,250.446691 L277.412281,133.429285 C277.412281,132.066423 276.869868,130.759524 275.900566,129.792792 L275.900566,129.792792 Z" id="Mark" fill="#212E61" transform="matrix(1, 0, 0, 1, -1.4210854715202004e-14, 0)"/>
</svg>